<mxfile host="app.diagrams.net" modified="2023-08-26T04:51:28.218Z" agent="Mozilla/5.0 (Windows NT 10.0; Win64; x64) AppleWebKit/537.36 (KHTML, like Gecko) Chrome/116.0.0.0 Safari/537.36" etag="Li0azp4qBBVTXM5yBSmt" version="21.6.2" type="device">
  <diagram id="C5RBs43oDa-KdzZeNtuy" name="Page-1">
    <mxGraphModel dx="1687" dy="2105" grid="1" gridSize="10" guides="1" tooltips="1" connect="1" arrows="1" fold="1" page="1" pageScale="1" pageWidth="827" pageHeight="1169" math="0" shadow="0">
      <root>
        <mxCell id="WIyWlLk6GJQsqaUBKTNV-0" />
        <mxCell id="WIyWlLk6GJQsqaUBKTNV-1" parent="WIyWlLk6GJQsqaUBKTNV-0" />
        <mxCell id="mAr2ITikCVFKchH6xO4Q-0" value="Cliente VIP" style="shape=umlActor;verticalLabelPosition=bottom;verticalAlign=top;html=1;outlineConnect=0;" parent="WIyWlLk6GJQsqaUBKTNV-1" vertex="1">
          <mxGeometry x="70" y="150" width="30" height="60" as="geometry" />
        </mxCell>
        <mxCell id="mAr2ITikCVFKchH6xO4Q-1" value="Cliente VIP" style="shape=umlActor;verticalLabelPosition=bottom;verticalAlign=top;html=1;outlineConnect=0;" parent="WIyWlLk6GJQsqaUBKTNV-1" vertex="1">
          <mxGeometry x="70" y="520" width="30" height="60" as="geometry" />
        </mxCell>
        <mxCell id="mAr2ITikCVFKchH6xO4Q-2" value="Sistema de Gestión&lt;br&gt;de Finanzas&lt;br&gt;Personales" style="shape=umlActor;verticalLabelPosition=bottom;verticalAlign=top;html=1;outlineConnect=0;" parent="WIyWlLk6GJQsqaUBKTNV-1" vertex="1">
          <mxGeometry x="1050" y="300" width="30" height="60" as="geometry" />
        </mxCell>
        <mxCell id="mAr2ITikCVFKchH6xO4Q-5" value="Ver Informe Financiero Avanzado" style="ellipse;whiteSpace=wrap;html=1;" parent="WIyWlLk6GJQsqaUBKTNV-1" vertex="1">
          <mxGeometry x="410" y="50" width="140" height="70" as="geometry" />
        </mxCell>
        <mxCell id="mAr2ITikCVFKchH6xO4Q-10" value="Use" style="endArrow=open;endSize=12;dashed=1;html=1;rounded=0;exitX=1;exitY=0.5;exitDx=0;exitDy=0;entryX=0;entryY=0.5;entryDx=0;entryDy=0;" parent="WIyWlLk6GJQsqaUBKTNV-1" source="mAr2ITikCVFKchH6xO4Q-5" target="mAr2ITikCVFKchH6xO4Q-11" edge="1">
          <mxGeometry width="160" relative="1" as="geometry">
            <mxPoint x="530" y="280" as="sourcePoint" />
            <mxPoint x="690" y="280" as="targetPoint" />
          </mxGeometry>
        </mxCell>
        <mxCell id="mAr2ITikCVFKchH6xO4Q-11" value="ResumenIngresos" style="ellipse;whiteSpace=wrap;html=1;" parent="WIyWlLk6GJQsqaUBKTNV-1" vertex="1">
          <mxGeometry x="690" y="-170" width="140" height="70" as="geometry" />
        </mxCell>
        <mxCell id="mAr2ITikCVFKchH6xO4Q-12" value="ResumenGastos" style="ellipse;whiteSpace=wrap;html=1;" parent="WIyWlLk6GJQsqaUBKTNV-1" vertex="1">
          <mxGeometry x="690" y="-90" width="140" height="70" as="geometry" />
        </mxCell>
        <mxCell id="mAr2ITikCVFKchH6xO4Q-13" value="Use" style="endArrow=open;endSize=12;dashed=1;html=1;rounded=0;exitX=1;exitY=0.5;exitDx=0;exitDy=0;entryX=0;entryY=0.5;entryDx=0;entryDy=0;" parent="WIyWlLk6GJQsqaUBKTNV-1" source="mAr2ITikCVFKchH6xO4Q-5" target="mAr2ITikCVFKchH6xO4Q-12" edge="1">
          <mxGeometry width="160" relative="1" as="geometry">
            <mxPoint x="530" y="180" as="sourcePoint" />
            <mxPoint x="690" y="180" as="targetPoint" />
          </mxGeometry>
        </mxCell>
        <mxCell id="mAr2ITikCVFKchH6xO4Q-14" value="SituaciónFinanciera" style="ellipse;whiteSpace=wrap;html=1;" parent="WIyWlLk6GJQsqaUBKTNV-1" vertex="1">
          <mxGeometry x="690" y="-10" width="140" height="70" as="geometry" />
        </mxCell>
        <mxCell id="mAr2ITikCVFKchH6xO4Q-15" value="Use" style="endArrow=open;endSize=12;dashed=1;html=1;rounded=0;exitX=1;exitY=0.5;exitDx=0;exitDy=0;entryX=0;entryY=0.5;entryDx=0;entryDy=0;" parent="WIyWlLk6GJQsqaUBKTNV-1" source="mAr2ITikCVFKchH6xO4Q-5" target="mAr2ITikCVFKchH6xO4Q-14" edge="1">
          <mxGeometry width="160" relative="1" as="geometry">
            <mxPoint x="530" y="180" as="sourcePoint" />
            <mxPoint x="690" y="180" as="targetPoint" />
          </mxGeometry>
        </mxCell>
        <mxCell id="mAr2ITikCVFKchH6xO4Q-17" value="" style="endArrow=open;startArrow=none;endFill=0;startFill=0;endSize=8;html=1;verticalAlign=bottom;labelBackgroundColor=none;strokeWidth=1;rounded=0;exitX=0;exitY=0.3333333333333333;exitDx=0;exitDy=0;exitPerimeter=0;entryX=1;entryY=0.5;entryDx=0;entryDy=0;" parent="WIyWlLk6GJQsqaUBKTNV-1" source="mAr2ITikCVFKchH6xO4Q-2" target="mAr2ITikCVFKchH6xO4Q-11" edge="1">
          <mxGeometry width="160" relative="1" as="geometry">
            <mxPoint x="530" y="180" as="sourcePoint" />
            <mxPoint x="690" y="180" as="targetPoint" />
          </mxGeometry>
        </mxCell>
        <mxCell id="mAr2ITikCVFKchH6xO4Q-18" value="" style="endArrow=open;startArrow=none;endFill=0;startFill=0;endSize=8;html=1;verticalAlign=bottom;labelBackgroundColor=none;strokeWidth=1;rounded=0;exitX=0;exitY=0.3333333333333333;exitDx=0;exitDy=0;exitPerimeter=0;entryX=1;entryY=0.5;entryDx=0;entryDy=0;" parent="WIyWlLk6GJQsqaUBKTNV-1" source="mAr2ITikCVFKchH6xO4Q-2" target="mAr2ITikCVFKchH6xO4Q-12" edge="1">
          <mxGeometry width="160" relative="1" as="geometry">
            <mxPoint x="530" y="180" as="sourcePoint" />
            <mxPoint x="690" y="180" as="targetPoint" />
          </mxGeometry>
        </mxCell>
        <mxCell id="mAr2ITikCVFKchH6xO4Q-19" value="" style="endArrow=open;startArrow=none;endFill=0;startFill=0;endSize=8;html=1;verticalAlign=bottom;labelBackgroundColor=none;strokeWidth=1;rounded=0;exitX=0;exitY=0.3333333333333333;exitDx=0;exitDy=0;exitPerimeter=0;entryX=1;entryY=0.5;entryDx=0;entryDy=0;" parent="WIyWlLk6GJQsqaUBKTNV-1" source="mAr2ITikCVFKchH6xO4Q-2" target="mAr2ITikCVFKchH6xO4Q-14" edge="1">
          <mxGeometry width="160" relative="1" as="geometry">
            <mxPoint x="530" y="180" as="sourcePoint" />
            <mxPoint x="690" y="180" as="targetPoint" />
          </mxGeometry>
        </mxCell>
        <mxCell id="mAr2ITikCVFKchH6xO4Q-20" value="RendimientoFinanciero" style="ellipse;whiteSpace=wrap;html=1;" parent="WIyWlLk6GJQsqaUBKTNV-1" vertex="1">
          <mxGeometry x="690" y="70" width="140" height="70" as="geometry" />
        </mxCell>
        <mxCell id="mAr2ITikCVFKchH6xO4Q-21" value="" style="endArrow=open;startArrow=none;endFill=0;startFill=0;endSize=8;html=1;verticalAlign=bottom;labelBackgroundColor=none;strokeWidth=1;rounded=0;exitX=0;exitY=0.3333333333333333;exitDx=0;exitDy=0;exitPerimeter=0;entryX=1;entryY=0.5;entryDx=0;entryDy=0;" parent="WIyWlLk6GJQsqaUBKTNV-1" source="mAr2ITikCVFKchH6xO4Q-2" target="mAr2ITikCVFKchH6xO4Q-20" edge="1">
          <mxGeometry width="160" relative="1" as="geometry">
            <mxPoint x="670" y="320" as="sourcePoint" />
            <mxPoint x="830" y="320" as="targetPoint" />
          </mxGeometry>
        </mxCell>
        <mxCell id="mAr2ITikCVFKchH6xO4Q-22" value="Use" style="endArrow=open;endSize=12;dashed=1;html=1;rounded=0;exitX=1;exitY=0.5;exitDx=0;exitDy=0;entryX=0;entryY=0.5;entryDx=0;entryDy=0;" parent="WIyWlLk6GJQsqaUBKTNV-1" source="mAr2ITikCVFKchH6xO4Q-5" target="mAr2ITikCVFKchH6xO4Q-20" edge="1">
          <mxGeometry width="160" relative="1" as="geometry">
            <mxPoint x="580" y="160" as="sourcePoint" />
            <mxPoint x="720" y="160" as="targetPoint" />
          </mxGeometry>
        </mxCell>
        <mxCell id="mAr2ITikCVFKchH6xO4Q-23" value="LogInVIPUser" style="ellipse;whiteSpace=wrap;html=1;" parent="WIyWlLk6GJQsqaUBKTNV-1" vertex="1">
          <mxGeometry x="170" y="135" width="140" height="70" as="geometry" />
        </mxCell>
        <mxCell id="mAr2ITikCVFKchH6xO4Q-24" value="" style="endArrow=open;startArrow=none;endFill=0;startFill=0;endSize=8;html=1;verticalAlign=bottom;labelBackgroundColor=none;strokeWidth=1;rounded=0;exitX=1;exitY=0.3333333333333333;exitDx=0;exitDy=0;exitPerimeter=0;entryX=0;entryY=0.5;entryDx=0;entryDy=0;" parent="WIyWlLk6GJQsqaUBKTNV-1" source="mAr2ITikCVFKchH6xO4Q-0" target="mAr2ITikCVFKchH6xO4Q-23" edge="1">
          <mxGeometry width="160" relative="1" as="geometry">
            <mxPoint x="320" y="50" as="sourcePoint" />
            <mxPoint x="480" y="50" as="targetPoint" />
          </mxGeometry>
        </mxCell>
        <mxCell id="mAr2ITikCVFKchH6xO4Q-25" value="Use" style="endArrow=open;endSize=12;dashed=1;html=1;rounded=0;exitX=1;exitY=0.5;exitDx=0;exitDy=0;entryX=0;entryY=0.5;entryDx=0;entryDy=0;" parent="WIyWlLk6GJQsqaUBKTNV-1" source="mAr2ITikCVFKchH6xO4Q-23" target="mAr2ITikCVFKchH6xO4Q-5" edge="1">
          <mxGeometry width="160" relative="1" as="geometry">
            <mxPoint x="320" y="50" as="sourcePoint" />
            <mxPoint x="480" y="50" as="targetPoint" />
          </mxGeometry>
        </mxCell>
        <mxCell id="mAr2ITikCVFKchH6xO4Q-27" value="RegisterVIPUser" style="ellipse;whiteSpace=wrap;html=1;" parent="WIyWlLk6GJQsqaUBKTNV-1" vertex="1">
          <mxGeometry x="170" y="50" width="140" height="70" as="geometry" />
        </mxCell>
        <mxCell id="mAr2ITikCVFKchH6xO4Q-28" value="" style="endArrow=open;startArrow=none;endFill=0;startFill=0;endSize=8;html=1;verticalAlign=bottom;labelBackgroundColor=none;strokeWidth=1;rounded=0;exitX=1;exitY=0.3333333333333333;exitDx=0;exitDy=0;exitPerimeter=0;entryX=0;entryY=0.5;entryDx=0;entryDy=0;" parent="WIyWlLk6GJQsqaUBKTNV-1" source="mAr2ITikCVFKchH6xO4Q-0" target="mAr2ITikCVFKchH6xO4Q-27" edge="1">
          <mxGeometry width="160" relative="1" as="geometry">
            <mxPoint x="40" y="24.5" as="sourcePoint" />
            <mxPoint x="200" y="24.5" as="targetPoint" />
          </mxGeometry>
        </mxCell>
        <mxCell id="mAr2ITikCVFKchH6xO4Q-29" value="Calendario" style="ellipse;whiteSpace=wrap;html=1;" parent="WIyWlLk6GJQsqaUBKTNV-1" vertex="1">
          <mxGeometry x="690" y="150" width="140" height="70" as="geometry" />
        </mxCell>
        <mxCell id="mAr2ITikCVFKchH6xO4Q-30" value="Use" style="endArrow=open;endSize=12;dashed=1;html=1;rounded=0;entryX=0;entryY=0.5;entryDx=0;entryDy=0;exitX=1;exitY=0.5;exitDx=0;exitDy=0;" parent="WIyWlLk6GJQsqaUBKTNV-1" source="mAr2ITikCVFKchH6xO4Q-5" target="mAr2ITikCVFKchH6xO4Q-29" edge="1">
          <mxGeometry width="160" relative="1" as="geometry">
            <mxPoint x="450" y="160" as="sourcePoint" />
            <mxPoint x="610" y="160" as="targetPoint" />
          </mxGeometry>
        </mxCell>
        <mxCell id="mAr2ITikCVFKchH6xO4Q-31" value="" style="endArrow=open;startArrow=none;endFill=0;startFill=0;endSize=8;html=1;verticalAlign=bottom;labelBackgroundColor=none;strokeWidth=1;rounded=0;exitX=0;exitY=0.3333333333333333;exitDx=0;exitDy=0;exitPerimeter=0;entryX=1;entryY=0.5;entryDx=0;entryDy=0;" parent="WIyWlLk6GJQsqaUBKTNV-1" source="mAr2ITikCVFKchH6xO4Q-2" target="mAr2ITikCVFKchH6xO4Q-29" edge="1">
          <mxGeometry width="160" relative="1" as="geometry">
            <mxPoint x="450" y="160" as="sourcePoint" />
            <mxPoint x="610" y="160" as="targetPoint" />
          </mxGeometry>
        </mxCell>
        <mxCell id="mAr2ITikCVFKchH6xO4Q-32" value="RealizaPresupuesto" style="ellipse;whiteSpace=wrap;html=1;" parent="WIyWlLk6GJQsqaUBKTNV-1" vertex="1">
          <mxGeometry x="410" y="130" width="140" height="70" as="geometry" />
        </mxCell>
        <mxCell id="mAr2ITikCVFKchH6xO4Q-33" value="Use" style="endArrow=open;endSize=12;dashed=1;html=1;rounded=0;exitX=1;exitY=0.5;exitDx=0;exitDy=0;entryX=0;entryY=0.5;entryDx=0;entryDy=0;" parent="WIyWlLk6GJQsqaUBKTNV-1" source="mAr2ITikCVFKchH6xO4Q-23" target="mAr2ITikCVFKchH6xO4Q-32" edge="1">
          <mxGeometry width="160" relative="1" as="geometry">
            <mxPoint x="330" y="200" as="sourcePoint" />
            <mxPoint x="490" y="200" as="targetPoint" />
          </mxGeometry>
        </mxCell>
        <mxCell id="mAr2ITikCVFKchH6xO4Q-34" value="RealizaPlanificación" style="ellipse;whiteSpace=wrap;html=1;" parent="WIyWlLk6GJQsqaUBKTNV-1" vertex="1">
          <mxGeometry x="410" y="210" width="140" height="70" as="geometry" />
        </mxCell>
        <mxCell id="mAr2ITikCVFKchH6xO4Q-36" value="Use" style="endArrow=open;endSize=12;dashed=1;html=1;rounded=0;entryX=0;entryY=0.5;entryDx=0;entryDy=0;exitX=1;exitY=0.5;exitDx=0;exitDy=0;" parent="WIyWlLk6GJQsqaUBKTNV-1" source="mAr2ITikCVFKchH6xO4Q-23" target="mAr2ITikCVFKchH6xO4Q-34" edge="1">
          <mxGeometry width="160" relative="1" as="geometry">
            <mxPoint x="190" y="290" as="sourcePoint" />
            <mxPoint x="350" y="290" as="targetPoint" />
          </mxGeometry>
        </mxCell>
        <mxCell id="mAr2ITikCVFKchH6xO4Q-37" value="AñadeIngresos" style="ellipse;whiteSpace=wrap;html=1;" parent="WIyWlLk6GJQsqaUBKTNV-1" vertex="1">
          <mxGeometry x="414" y="290" width="140" height="70" as="geometry" />
        </mxCell>
        <mxCell id="mAr2ITikCVFKchH6xO4Q-38" value="AñadirEgresos" style="ellipse;whiteSpace=wrap;html=1;" parent="WIyWlLk6GJQsqaUBKTNV-1" vertex="1">
          <mxGeometry x="410" y="370" width="140" height="70" as="geometry" />
        </mxCell>
        <mxCell id="mAr2ITikCVFKchH6xO4Q-39" value="Use" style="endArrow=open;endSize=12;dashed=1;html=1;rounded=0;entryX=0;entryY=0.5;entryDx=0;entryDy=0;exitX=1;exitY=0.5;exitDx=0;exitDy=0;" parent="WIyWlLk6GJQsqaUBKTNV-1" source="mAr2ITikCVFKchH6xO4Q-23" target="mAr2ITikCVFKchH6xO4Q-37" edge="1">
          <mxGeometry width="160" relative="1" as="geometry">
            <mxPoint x="210" y="300" as="sourcePoint" />
            <mxPoint x="370" y="300" as="targetPoint" />
          </mxGeometry>
        </mxCell>
        <mxCell id="mAr2ITikCVFKchH6xO4Q-40" value="Use" style="endArrow=open;endSize=12;dashed=1;html=1;rounded=0;entryX=0;entryY=0.5;entryDx=0;entryDy=0;exitX=1;exitY=0.5;exitDx=0;exitDy=0;" parent="WIyWlLk6GJQsqaUBKTNV-1" source="mAr2ITikCVFKchH6xO4Q-23" target="mAr2ITikCVFKchH6xO4Q-38" edge="1">
          <mxGeometry width="160" relative="1" as="geometry">
            <mxPoint x="190" y="310" as="sourcePoint" />
            <mxPoint x="350" y="310" as="targetPoint" />
          </mxGeometry>
        </mxCell>
        <mxCell id="mAr2ITikCVFKchH6xO4Q-41" value="LoginFreeUser" style="ellipse;whiteSpace=wrap;html=1;" parent="WIyWlLk6GJQsqaUBKTNV-1" vertex="1">
          <mxGeometry x="170" y="510" width="140" height="70" as="geometry" />
        </mxCell>
        <mxCell id="mAr2ITikCVFKchH6xO4Q-42" value="" style="endArrow=open;startArrow=none;endFill=0;startFill=0;endSize=8;html=1;verticalAlign=bottom;labelBackgroundColor=none;strokeWidth=1;rounded=0;entryX=0;entryY=0.5;entryDx=0;entryDy=0;exitX=1;exitY=0.3333333333333333;exitDx=0;exitDy=0;exitPerimeter=0;" parent="WIyWlLk6GJQsqaUBKTNV-1" source="mAr2ITikCVFKchH6xO4Q-1" target="mAr2ITikCVFKchH6xO4Q-41" edge="1">
          <mxGeometry width="160" relative="1" as="geometry">
            <mxPoint x="70" y="650" as="sourcePoint" />
            <mxPoint x="230" y="650" as="targetPoint" />
          </mxGeometry>
        </mxCell>
        <mxCell id="mAr2ITikCVFKchH6xO4Q-43" value="RegisterFreeUser" style="ellipse;whiteSpace=wrap;html=1;" parent="WIyWlLk6GJQsqaUBKTNV-1" vertex="1">
          <mxGeometry x="170" y="420" width="140" height="70" as="geometry" />
        </mxCell>
        <mxCell id="mAr2ITikCVFKchH6xO4Q-44" value="" style="endArrow=open;startArrow=none;endFill=0;startFill=0;endSize=8;html=1;verticalAlign=bottom;labelBackgroundColor=none;strokeWidth=1;rounded=0;entryX=0;entryY=0.5;entryDx=0;entryDy=0;exitX=1;exitY=0.3333333333333333;exitDx=0;exitDy=0;exitPerimeter=0;" parent="WIyWlLk6GJQsqaUBKTNV-1" source="mAr2ITikCVFKchH6xO4Q-1" target="mAr2ITikCVFKchH6xO4Q-43" edge="1">
          <mxGeometry width="160" relative="1" as="geometry">
            <mxPoint x="70" y="404.5" as="sourcePoint" />
            <mxPoint x="230" y="404.5" as="targetPoint" />
          </mxGeometry>
        </mxCell>
        <mxCell id="mAr2ITikCVFKchH6xO4Q-45" value="Use" style="endArrow=open;endSize=12;dashed=1;html=1;rounded=0;exitX=1;exitY=0.5;exitDx=0;exitDy=0;entryX=0;entryY=0.5;entryDx=0;entryDy=0;" parent="WIyWlLk6GJQsqaUBKTNV-1" source="mAr2ITikCVFKchH6xO4Q-41" target="mAr2ITikCVFKchH6xO4Q-37" edge="1">
          <mxGeometry width="160" relative="1" as="geometry">
            <mxPoint x="350" y="549.5" as="sourcePoint" />
            <mxPoint x="510" y="549.5" as="targetPoint" />
          </mxGeometry>
        </mxCell>
        <mxCell id="mAr2ITikCVFKchH6xO4Q-46" value="Use" style="endArrow=open;endSize=12;dashed=1;html=1;rounded=0;exitX=1;exitY=0.5;exitDx=0;exitDy=0;entryX=0;entryY=0.5;entryDx=0;entryDy=0;" parent="WIyWlLk6GJQsqaUBKTNV-1" source="mAr2ITikCVFKchH6xO4Q-41" target="mAr2ITikCVFKchH6xO4Q-38" edge="1">
          <mxGeometry width="160" relative="1" as="geometry">
            <mxPoint x="290" y="640" as="sourcePoint" />
            <mxPoint x="450" y="640" as="targetPoint" />
          </mxGeometry>
        </mxCell>
        <mxCell id="mAr2ITikCVFKchH6xO4Q-47" value="Ver Informe Financiero Básico" style="ellipse;whiteSpace=wrap;html=1;" parent="WIyWlLk6GJQsqaUBKTNV-1" vertex="1">
          <mxGeometry x="414" y="515" width="140" height="70" as="geometry" />
        </mxCell>
        <mxCell id="mAr2ITikCVFKchH6xO4Q-48" value="Resumen Ingresos Básico" style="ellipse;whiteSpace=wrap;html=1;" parent="WIyWlLk6GJQsqaUBKTNV-1" vertex="1">
          <mxGeometry x="690" y="450" width="140" height="70" as="geometry" />
        </mxCell>
        <mxCell id="mAr2ITikCVFKchH6xO4Q-49" value="Resumen Egresos Básico" style="ellipse;whiteSpace=wrap;html=1;" parent="WIyWlLk6GJQsqaUBKTNV-1" vertex="1">
          <mxGeometry x="690" y="585" width="140" height="70" as="geometry" />
        </mxCell>
        <mxCell id="mAr2ITikCVFKchH6xO4Q-50" value="Use" style="endArrow=open;endSize=12;dashed=1;html=1;rounded=0;exitX=1;exitY=0.5;exitDx=0;exitDy=0;entryX=0;entryY=0.5;entryDx=0;entryDy=0;" parent="WIyWlLk6GJQsqaUBKTNV-1" source="mAr2ITikCVFKchH6xO4Q-41" target="mAr2ITikCVFKchH6xO4Q-47" edge="1">
          <mxGeometry width="160" relative="1" as="geometry">
            <mxPoint x="300" y="640" as="sourcePoint" />
            <mxPoint x="460" y="640" as="targetPoint" />
          </mxGeometry>
        </mxCell>
        <mxCell id="mAr2ITikCVFKchH6xO4Q-51" value="Use" style="endArrow=open;endSize=12;dashed=1;html=1;rounded=0;exitX=1;exitY=0.5;exitDx=0;exitDy=0;entryX=0;entryY=0.5;entryDx=0;entryDy=0;" parent="WIyWlLk6GJQsqaUBKTNV-1" source="mAr2ITikCVFKchH6xO4Q-47" target="mAr2ITikCVFKchH6xO4Q-48" edge="1">
          <mxGeometry width="160" relative="1" as="geometry">
            <mxPoint x="520" y="630" as="sourcePoint" />
            <mxPoint x="680" y="630" as="targetPoint" />
          </mxGeometry>
        </mxCell>
        <mxCell id="mAr2ITikCVFKchH6xO4Q-52" value="Use" style="endArrow=open;endSize=12;dashed=1;html=1;rounded=0;exitX=1;exitY=0.5;exitDx=0;exitDy=0;entryX=0;entryY=0.5;entryDx=0;entryDy=0;" parent="WIyWlLk6GJQsqaUBKTNV-1" source="mAr2ITikCVFKchH6xO4Q-47" target="mAr2ITikCVFKchH6xO4Q-49" edge="1">
          <mxGeometry width="160" relative="1" as="geometry">
            <mxPoint x="500" y="680" as="sourcePoint" />
            <mxPoint x="660" y="680" as="targetPoint" />
          </mxGeometry>
        </mxCell>
        <mxCell id="mAr2ITikCVFKchH6xO4Q-53" value="" style="endArrow=open;startArrow=none;endFill=0;startFill=0;endSize=8;html=1;verticalAlign=bottom;labelBackgroundColor=none;strokeWidth=1;rounded=0;exitX=0;exitY=0.3333333333333333;exitDx=0;exitDy=0;exitPerimeter=0;entryX=1;entryY=0.5;entryDx=0;entryDy=0;" parent="WIyWlLk6GJQsqaUBKTNV-1" source="mAr2ITikCVFKchH6xO4Q-2" target="mAr2ITikCVFKchH6xO4Q-48" edge="1">
          <mxGeometry width="160" relative="1" as="geometry">
            <mxPoint x="890" y="390" as="sourcePoint" />
            <mxPoint x="1050" y="390" as="targetPoint" />
          </mxGeometry>
        </mxCell>
        <mxCell id="mAr2ITikCVFKchH6xO4Q-54" value="" style="endArrow=open;startArrow=none;endFill=0;startFill=0;endSize=8;html=1;verticalAlign=bottom;labelBackgroundColor=none;strokeWidth=1;rounded=0;exitX=0;exitY=0.3333333333333333;exitDx=0;exitDy=0;exitPerimeter=0;entryX=1;entryY=0.5;entryDx=0;entryDy=0;" parent="WIyWlLk6GJQsqaUBKTNV-1" source="mAr2ITikCVFKchH6xO4Q-2" target="mAr2ITikCVFKchH6xO4Q-49" edge="1">
          <mxGeometry width="160" relative="1" as="geometry">
            <mxPoint x="900" y="500" as="sourcePoint" />
            <mxPoint x="1060" y="500" as="targetPoint" />
          </mxGeometry>
        </mxCell>
      </root>
    </mxGraphModel>
  </diagram>
</mxfile>
